<?xml version="1.0" encoding="UTF-8"?>
<svg width="314px" height="276px" viewBox="0 0 314 276" version="1.1" xmlns="http://www.w3.org/2000/svg" xmlns:xlink="http://www.w3.org/1999/xlink">
    <!-- Generator: Sketch 53.2 (72643) - https://sketchapp.com -->
    <title>swift_bird_with_space</title>
    <desc>Created with Sketch.</desc>
    <g id="swift_bird_with_space" stroke="none" stroke-width="1" fill="none" fill-rule="evenodd">
        <g id="Group" fill="#ffffff" fill-rule="nonzero">
            <g id="Swift" transform="translate(0.183686, 0.342129)">
                <path d="M96.3526264,0.657871383 C164.493209,45.9214428 142.39644,95.6593 142.39644,95.6593 C142.39644,95.6593 161.751698,116.979657 153.972783,135.657871 C153.972783,135.657871 145.941998,122.611086 132.612251,122.611086 C119.72812,122.611086 112.104203,135.657871 86.0937585,135.657871 C28.241106,135.657871 0.816313784,88.4657285 0.816313784,88.4657285 C52.9534497,122.022871 88.5737114,98.2435857 88.5737114,98.2435857 C65.033533,84.9557285 15.1051052,21.3225142 15.1051052,21.3225142 C58.630217,57.4928714 77.4139231,66.9910857 77.4139231,66.9910857 C66.1185124,57.9653714 34.644422,13.7335857 34.644422,13.7335857 C59.8314442,38.6025142 109.895494,73.2782285 109.895494,73.2782285 C124.252097,34.9575142 96.3526264,0.657871383 96.3526264,0.657871383 Z" id="Path"></path>
            </g>
        </g>
        <g id="Group-Copy" transform="translate(157.000000, 139.000000)" fill="#ffffff" fill-rule="nonzero">
            <g id="Swift" transform="translate(0.183686, 0.342129)">
                <path d="M96.3526264,0.657871383 C164.493209,45.9214428 142.39644,95.6593 142.39644,95.6593 C142.39644,95.6593 161.751698,116.979657 153.972783,135.657871 C153.972783,135.657871 145.941998,122.611086 132.612251,122.611086 C119.72812,122.611086 112.104203,135.657871 86.0937585,135.657871 C28.241106,135.657871 0.816313784,88.4657285 0.816313784,88.4657285 C52.9534497,122.022871 88.5737114,98.2435857 88.5737114,98.2435857 C65.033533,84.9557285 15.1051052,21.3225142 15.1051052,21.3225142 C58.630217,57.4928714 77.4139231,66.9910857 77.4139231,66.9910857 C66.1185124,57.9653714 34.644422,13.7335857 34.644422,13.7335857 C59.8314442,38.6025142 109.895494,73.2782285 109.895494,73.2782285 C124.252097,34.9575142 96.3526264,0.657871383 96.3526264,0.657871383 Z" id="Path"></path>
            </g>
        </g>
    </g>
</svg>