<svg xmlns="http://www.w3.org/2000/svg" width="1600" height="700" viewBox="0 0 1600 700">
<defs>
  <radialGradient id="glow" cx="0.72" cy="0.5" r="0.5">
    <stop offset="0" stop-color="#99baff" stop-opacity=".16"/>
    <stop offset="1" stop-color="#99baff" stop-opacity="0"/>
  </radialGradient>
  <pattern id="dots" width="28" height="28" patternUnits="userSpaceOnUse">
    <circle cx="2" cy="2" r="1.4" fill="#ffffff" opacity=".07"/>
  </pattern>
  <linearGradient id="fade" x1="0" x2="1">
    <stop offset=".45" stop-color="#fff" stop-opacity="0"/>
    <stop offset=".8" stop-color="#fff" stop-opacity="1"/>
  </linearGradient>
  <filter id="grain"><feTurbulence type="fractalNoise" baseFrequency=".9" numOctaves="2" seed="7"/><feColorMatrix values="0 0 0 0 1  0 0 0 0 1  0 0 0 0 1  0 0 0 .5 0"/></filter>
  <mask id="dotmask"><rect width="1600" height="700" fill="url(#fade)"/></mask>
  <filter id="shadow" x="-40%" y="-40%" width="180%" height="200%">
    <feDropShadow dx="0" dy="18" stdDeviation="22" flood-color="#050a12" flood-opacity=".55"/>
  </filter>
</defs>
<rect width="1600" height="700" fill="#1c2738"/>
<rect width="1600" height="700" fill="url(#glow)"/>
<rect width="1600" height="700" filter="url(#grain)" opacity=".05"/>
<rect width="1600" height="700" fill="url(#dots)" mask="url(#dotmask)"/>
<g filter="url(#shadow)"><rect x="950" y="120" width="520" height="96" rx="16" fill="#242f40" stroke="#3a4a62" stroke-width="2"/></g><g opacity=".55"><circle cx="990" cy="168" r="15" fill="#e5484d"/><path d="M984 162l12 12M996 162l-12 12" stroke="#fff" stroke-width="3" stroke-linecap="round"/><text x="1020" y="160" font-family="SF Pro Text, Helvetica Neue, Arial, sans-serif" font-size="17" font-weight="600" fill="#f1f4f9" text-anchor="start" >Command AppIntentsSSUTraining failed</text><text x="1020" y="186" font-family="SF Pro Text, Helvetica Neue, Arial, sans-serif" font-size="17" font-weight="400" fill="#aab6c8" text-anchor="start" >with a nonzero exit code</text></g><g filter="url(#shadow)"><rect x="950" y="262" width="520" height="170" rx="16" fill="#242f40" stroke="#3a4a62" stroke-width="2"/></g><rect x="972" y="284" width="476" height="34" rx="9" fill="#1a2433" stroke="#3a4a62" stroke-width="1.5"/><circle cx="994" cy="300" r="7" fill="none" stroke="#8795aa" stroke-width="2"/><path d="M999 305l6 6" stroke="#8795aa" stroke-width="2" stroke-linecap="round"/><text x="1014" y="306" font-family="SF Pro Text, Helvetica Neue, Arial, sans-serif" font-size="16" font-weight="400" fill="#dbe4f1" text-anchor="start" >flexible</text><rect x="964" y="346" width="492" height="64" rx="10" fill="#99baff" fill-opacity=".12" stroke="#99baff" stroke-width="2"/><text x="982" y="373" font-family="SF Pro Text, Helvetica Neue, Arial, sans-serif" font-size="17" font-weight="500" fill="#f1f4f9" text-anchor="start" >Enable App Shortcuts</text><text x="982" y="396" font-family="SF Pro Text, Helvetica Neue, Arial, sans-serif" font-size="17" font-weight="500" fill="#f1f4f9" text-anchor="start" >Flexible Matching</text><rect x="1358" y="361" width="80" height="34" rx="8" fill="#99baff"/><text x="1390" y="384" font-family="SF Pro Text, Helvetica Neue, Arial, sans-serif" font-size="17" font-weight="700" fill="#111a2c" text-anchor="middle" >No</text><path d="M1420 374l5 -5 5 5M1420 382l5 5 5 -5" stroke="#111a2c" stroke-width="2" fill="none" stroke-linecap="round" stroke-linejoin="round"/><g filter="url(#shadow)"><rect x="1100" y="470" width="370" height="68" rx="34" fill="#1f3b33" stroke="#3fb68b" stroke-width="2"/></g><circle cx="1138" cy="504" r="15" fill="#3fb68b"/><path d="M1131 504l5 5 9 -10" stroke="#fff" stroke-width="3" fill="none" stroke-linecap="round" stroke-linejoin="round"/><text x="1164" y="511" font-family="SF Pro Text, Helvetica Neue, Arial, sans-serif" font-size="19" font-weight="600" fill="#e6f7ef" text-anchor="start" >Build Succeeded</text>
</svg>
