<svg xmlns="http://www.w3.org/2000/svg" width="1600" height="700" viewBox="0 0 1600 700"><rect width="1600" height="700" fill="#233247"/><circle cx="1380" cy="190" r="470" fill="#ffffff" opacity=".035"/><g transform="translate(950 175)" stroke="#a6bffa" stroke-width="5" stroke-linecap="round" stroke-linejoin="round" fill="none"><rect width="470" height="350" rx="24" fill="#2d405b" stroke="#526780"/><path d="M0 52H470" stroke="#526780"/><g fill="#a6bffa" stroke="none"><circle cx="27" cy="26" r="6"/><circle cx="49" cy="26" r="6"/><circle cx="71" cy="26" r="6"/></g><rect x="40" y="132" width="118" height="108" rx="12"/><rect x="315" y="112" width="105" height="158" rx="12"/><path d="M177 187h38m40 0h40M224 174l20 26m0-26-20 26M338 147h59m-59 37h59m-59 37h59M64 266h70"/></g></svg>